<?xml version="1.0" encoding="UTF-8"?>
<svg xmlns="http://www.w3.org/2000/svg" xmlns:xlink="http://www.w3.org/1999/xlink" width="16px" height="16px" viewBox="0 0 16 16" version="1.1">
<g id="surface1">
<path style=" stroke:none;fill-rule:nonzero;fill:rgb(0%,0%,0%);fill-opacity:1;" d="M 0 8 L 0 16 L 16 16 L 16 0 L 0 0 Z M 5.710938 6.554688 C 5.933594 7.15625 5.265625 8.554688 4.710938 8.621094 C 4.355469 8.667969 4.222656 8.84375 4.222656 9.246094 C 4.222656 9.621094 4.109375 9.777344 3.777344 9.777344 C 3.378906 9.777344 3.332031 9.621094 3.332031 8 L 3.332031 6.222656 L 4.445312 6.222656 C 5.246094 6.222656 5.601562 6.3125 5.710938 6.554688 Z M 8.511719 7.15625 C 8.621094 7.621094 8.800781 8 8.890625 8 C 8.976562 8 9.222656 7.601562 9.421875 7.109375 C 9.6875 6.421875 9.890625 6.222656 10.3125 6.222656 L 10.84375 6.222656 L 10.15625 8 C 9.511719 9.621094 9.398438 9.777344 8.890625 9.734375 C 8.488281 9.6875 8.289062 9.464844 8.132812 8.933594 C 8.023438 8.554688 7.867188 8.222656 7.777344 8.222656 C 7.6875 8.222656 7.535156 8.554688 7.421875 8.933594 C 7.265625 9.488281 7.066406 9.6875 6.621094 9.734375 C 5.933594 9.820312 5.667969 9.246094 5.890625 8.222656 C 6.066406 7.464844 6.179688 7.398438 6.554688 7.910156 C 6.777344 8.222656 6.867188 8.132812 7.109375 7.246094 C 7.355469 6.378906 7.488281 6.222656 7.867188 6.265625 C 8.179688 6.3125 8.378906 6.578125 8.511719 7.15625 Z M 12.535156 9.265625 C 12.667969 9.710938 12.621094 9.777344 12.15625 9.777344 C 11.84375 9.777344 11.554688 9.621094 11.464844 9.445312 C 11.398438 9.265625 11.089844 9.109375 10.777344 9.109375 C 10.109375 9.109375 10.042969 8.667969 10.6875 8.511719 C 11.042969 8.421875 11.109375 8.265625 11.023438 7.867188 C 10.957031 7.601562 11 7.089844 11.132812 6.734375 C 11.378906 6.109375 11.378906 6.109375 11.867188 7.445312 C 12.15625 8.179688 12.445312 9 12.535156 9.265625 Z M 12.535156 9.265625 "/>
<path style=" stroke:none;fill-rule:nonzero;fill:rgb(0%,0%,0%);fill-opacity:1;" d="M 4.222656 7.332031 C 4.222656 7.753906 4.667969 7.933594 4.957031 7.621094 C 5.132812 7.464844 4.710938 6.890625 4.421875 6.890625 C 4.3125 6.890625 4.222656 7.089844 4.222656 7.332031 Z M 4.222656 7.332031 "/>
</g>
</svg>
